ply
format ascii 1.0
comment SB
element vertex 9
property float x
property float y
property float z
property uchar red
property uchar green
property uchar blue
property uchar alpha
property float quality
element face 18
property list uchar int vertex_indices
property uchar red
property uchar green
property uchar blue
property uchar alpha
end_header
 1  0 -2  255 255 255 0   0 
 1  2  2  255 255 255 0   1 
 1 -2  2  255 255 255 0   2 
-1  0 -2  255 255 255 0   3 
-1  2  2  255 255 255 0   4 
-1 -2  2  255 255 255 0   5 
 0  0 -1  255 255 255 0   6 
 0  1  1  255 255 255 0   7 
 0 -1  1  255 255 255 0   8 
3 0 3 1 255 255 255 255 
3 1 3 4 255 255 255 255 
3 1 4 2 255 255 255 255 
3 2 4 5 255 255 255 255
3 2 5 0 255 255 255 255 
3 0 5 3 255 255 255 255 
3 3 6 7 255 255 255 255 
3 3 7 4 255 255 255 255 
3 4 7 8 255 255 255 255 
3 4 8 5 255 255 255 255 
3 5 8 6 255 255 255 255 
3 5 6 3 255 255 255 255 
3 6 0 7 255 255 255 255 
3 7 0 1 255 255 255 255 
3 7 1 8 255 255 255 255 
3 8 1 2 255 255 255 255 
3 8 2 6 255 255 255 255 
3 6 2 0 255 255 255 255
